<svg xmlns="http://www.w3.org/2000/svg" width="78" height="34.999" viewBox="0 0 78 34.999">
  <g id="Cloud_icon" data-name="Cloud icon" fill="none">
    <path d="M9.988,35v0L9.75,35a9.829,9.829,0,0,1,0-19.658,9.639,9.639,0,0,1,3.726.744A14.528,14.528,0,0,1,27.349,5.752,14.347,14.347,0,0,1,34.082,7.42a17.3,17.3,0,0,1,30.175,3.235A12.221,12.221,0,1,1,66.11,35v0Z" stroke="none"/>
    <path d="M 65.97257995605469 32.99903106689453 L 66.07100677490234 32.99712371826172 C 68.73138427734375 32.94560623168945 71.22537231445312 31.86108779907227 73.09353637695312 29.943359375 C 74.96811676025391 28.01904106140137 76.00048828125 25.47253608703613 76.00048828125 22.77289962768555 C 76.00048828125 20.03827667236328 74.94500732421875 17.46841812133789 73.02848815917969 15.53672313690186 C 71.11625671386719 13.60934734344482 68.57473754882812 12.54790019989014 65.87211608886719 12.54790019989014 C 65.42015075683594 12.54790019989014 64.96601104736328 12.57799434661865 64.52231597900391 12.6373348236084 L 63.00822067260742 12.83986473083496 L 62.41444396972656 11.43241786956787 C 61.24832534790039 8.66835880279541 59.32167816162109 6.317076206207275 56.84279632568359 4.632758617401123 C 54.30791473388672 2.910393953323364 51.34512710571289 2.000005722045898 48.27472686767578 2.000005722045898 C 45.77420806884766 2.000005722045898 43.29322052001953 2.61929988861084 41.09996032714844 3.790935277938843 C 38.97265625 4.927347183227539 37.11233901977539 6.579064846038818 35.72011566162109 8.567535400390625 L 34.70718383789062 10.01425266265869 L 33.14623260498047 9.188146591186523 C 31.34616088867188 8.235500335693359 29.39552688598633 7.752464771270752 27.34851455688477 7.752464771270752 C 24.62029075622559 7.752464771270752 22.02829170227051 8.622970581054688 19.85275077819824 10.26988792419434 C 17.74344444274902 11.86666488647461 16.15840911865234 14.13847637176514 15.38965606689453 16.6668529510498 L 14.74609088897705 18.7834415435791 L 12.70492649078369 17.93035888671875 C 11.76929092407227 17.5393238067627 10.77510261535645 17.3410530090332 9.749985694885254 17.3410530090332 C 5.476632595062256 17.3410530090332 1.999997138977051 20.85312271118164 1.999997138977051 25.17004203796387 C 1.999997138977051 29.48695945739746 5.476632595062256 32.99903106689453 9.749985694885254 32.99903106689453 C 9.820408821105957 32.99903106689453 9.889832496643066 32.99795913696289 9.959256172180176 32.9969596862793 L 11.98817348480225 32.96993637084961 L 11.98817348480225 32.99903106689453 L 65.97257995605469 32.99903106689453 M 66.10972595214844 34.99903106689453 L 9.988173484802246 34.99903106689453 L 9.988173484802246 34.99674606323242 C 9.909150123596191 34.99788665771484 9.830138206481934 34.99903106689453 9.749985694885254 34.99903106689453 C 4.366232395172119 34.99903106689453 -2.918198561019381e-06 30.59893608093262 -2.918198561019381e-06 25.17004203796387 C -2.918198561019381e-06 19.74113464355469 4.366232395172119 15.3410530090332 9.749985694885254 15.3410530090332 C 11.06992626190186 15.3410530090332 12.32846736907959 15.60538196563721 13.476149559021 16.08504104614258 C 15.29518508911133 10.10242938995361 20.81820869445801 5.752464771270752 27.34851455688477 5.752464771270752 C 29.77919769287109 5.752464771270752 32.06888961791992 6.355170726776123 34.08176040649414 7.420441150665283 C 37.22470474243164 2.931488275527954 42.41006851196289 5.836397122038761e-06 48.27472686767578 5.836397122038761e-06 C 55.45306777954102 5.836397122038761e-06 61.61445617675781 4.390970706939697 64.25716400146484 10.65499401092529 C 64.78524780273438 10.58435916900635 65.32469940185547 10.54790019989014 65.87211608886719 10.54790019989014 C 72.5706787109375 10.54790019989014 78.00048828125 16.02008819580078 78.00048828125 22.77289962768555 C 78.00048828125 29.44479370117188 72.69916534423828 34.86914825439453 66.10972595214844 34.99674606323242 L 66.10972595214844 34.99903106689453 Z" stroke="none" fill="#35ec1d"/>
  </g>
</svg>
