<svg xmlns="http://www.w3.org/2000/svg" width="77" height="48" viewBox="0 0 77 48">
  <g id="Sun_cloud_icon" data-name="Sun &amp; cloud icon" transform="translate(-19 -333.283)">
    <g id="Group_285" data-name="Group 285" transform="translate(19 333.283)">
      <g id="Ellipse_49" data-name="Ellipse 49" transform="translate(15 15.001)" fill="none" stroke="#a3a3a3" stroke-width="2">
        <ellipse cx="9" cy="9.5" rx="9" ry="9.5" stroke="none"/>
        <ellipse cx="9" cy="9.5" rx="8" ry="8.5" fill="none"/>
      </g>
      <line id="Line_131" data-name="Line 131" y2="13.405" transform="translate(24.432 0)" fill="none" stroke="#a3a3a3" stroke-width="2"/>
      <line id="Line_132" data-name="Line 132" y2="13.405" transform="translate(24.432 34.595)" fill="none" stroke="#a3a3a3" stroke-width="2"/>
      <line id="Line_131-2" data-name="Line 131" y2="13.405" transform="translate(48 24) rotate(90)" fill="none" stroke="#a3a3a3" stroke-width="2"/>
      <line id="Line_132-2" data-name="Line 132" y2="13.405" transform="translate(13.405 24) rotate(90)" fill="none" stroke="#a3a3a3" stroke-width="2"/>
      <line id="Line_131-3" data-name="Line 131" y2="13.405" transform="translate(41.553 7.632) rotate(47)" fill="none" stroke="#a3a3a3" stroke-width="2"/>
      <line id="Line_132-3" data-name="Line 132" y2="13.405" transform="translate(16.252 31.225) rotate(47)" fill="none" stroke="#a3a3a3" stroke-width="2"/>
      <line id="Line_131-4" data-name="Line 131" y2="13.405" transform="translate(41.835 40.059) rotate(132)" fill="none" stroke="#a3a3a3" stroke-width="2"/>
      <line id="Line_132-4" data-name="Line 132" y2="13.405" transform="translate(16.127 16.911) rotate(132)" fill="none" stroke="#a3a3a3" stroke-width="2"/>
    </g>
    <g id="Cloud_icon" data-name="Cloud icon" transform="translate(25 349.284)" fill="#333232">
      <path d="M 60.06163787841797 30 L 10.09167957305908 30 L 10.09167957305908 29.97765922546387 L 9.069589614868164 29.99785041809082 C 9.004969596862793 29.99928092956543 8.940159797668457 30 8.875 30 C 4.532710075378418 30 1 26.54346084594727 1 22.29479026794434 C 1 18.04569053649902 4.532710075378418 14.58878993988037 8.875 14.58878993988037 C 9.920089721679688 14.58878993988037 10.93476009368896 14.78561019897461 11.89083957672119 15.17378044128418 L 12.89745044708252 15.58248043060303 L 13.22150039672852 14.54551029205322 C 13.96914005279541 12.15303993225098 15.51185989379883 10.00230979919434 17.56549072265625 8.489509582519531 C 19.69157028198242 6.923329830169678 22.22573089599609 6.095499992370605 24.89402008056641 6.095499992370605 C 26.86915016174316 6.095499992370605 28.83016967773438 6.567860126495361 30.5650806427002 7.461510181427002 L 31.33127021789551 7.856180191040039 L 31.83469009399414 7.156610012054443 C 33.17425155639648 5.295090198516846 34.96548843383789 3.748059988021851 37.01477813720703 2.682770013809204 C 39.13251876831055 1.581889986991882 41.52799987792969 1 43.9422492980957 1 C 46.90655899047852 1 49.76641845703125 1.854979991912842 52.21266174316406 3.472510099411011 C 54.59791946411133 5.049709796905518 56.45138168334961 7.250030040740967 57.57265853881836 9.835610389709473 L 57.87229919433594 10.52657032012939 L 58.619140625 10.42938041687012 C 59.05989837646484 10.37201976776123 59.51105117797852 10.34294033050537 59.9600715637207 10.34294033050537 C 65.49610900878906 10.34294033050537 70 14.75172996520996 70 20.17086982727051 C 70 22.75912094116211 68.98104858398438 25.20241928100586 67.130859375 27.05068016052246 C 65.27789306640625 28.90172004699707 62.80152130126953 29.94849967956543 60.15795135498047 29.99818992614746 L 60.06163787841797 30 Z" stroke="none"/>
      <path d="M 60.05223846435547 29 L 60.13915634155273 28.99836730957031 C 62.52293395996094 28.95355606079102 64.75497436523438 28.01059913635254 66.42412567138672 26.34320068359375 C 68.08519744873047 24.6838550567627 69 22.49181175231934 69 20.17086601257324 C 69 15.30313301086426 64.9447021484375 11.34294414520264 59.96006774902344 11.34294414520264 C 59.55402374267578 11.34294414520264 59.14628982543945 11.36921119689941 58.74819946289062 11.42102241516113 L 57.25451278686523 11.61541080474854 L 56.65521240234375 10.23347759246826 C 55.61123275756836 7.826155662536621 53.88430023193359 5.776689052581787 51.66110992431641 4.306644439697266 C 49.37896728515625 2.797622203826904 46.70983505249023 2 43.94225692749023 2 C 41.68788909912109 2 39.45190048217773 2.542911052703857 37.47600936889648 3.57004451751709 C 35.56498718261719 4.563466548919678 33.89492034912109 6.005666732788086 32.64637756347656 7.740711212158203 L 31.6395435333252 9.13984489440918 L 30.10715484619141 8.350500106811523 C 28.4904670715332 7.517744541168213 26.73652267456055 7.095499992370605 24.89402198791504 7.095499992370605 C 22.44067764282227 7.095499992370605 20.11161041259766 7.855944633483887 18.15858840942383 9.294632911682129 C 16.27501106262207 10.68217754364014 14.86062240600586 12.65289974212646 14.17598915100098 14.84377765655518 L 13.52788925170898 16.91769981384277 L 11.51466655731201 16.10032272338867 C 10.67863368988037 15.76089954376221 9.790522575378418 15.58878898620605 8.875 15.58878898620605 C 5.084111213684082 15.58878898620605 2 18.59708976745605 2 22.2947883605957 C 2 25.99205589294434 5.084111213684082 29 8.875 29 C 8.932766914367676 29 8.990233421325684 28.99936676025391 9.04752254486084 28.99810028076172 L 11.09167766571045 28.95534515380859 L 11.09167766571045 29 L 60.05223846435547 29 M 60.17674255371094 31 L 9.091677665710449 31 L 9.091677665710449 30.99761199951172 C 9.019721984863281 30.99920082092285 8.947555541992188 31 8.875 31 C 3.974322319030762 31 0 27.10269927978516 0 22.2947883605957 C 0 17.48609924316406 3.974322319030762 13.58878898620605 8.875 13.58878898620605 C 10.07648849487305 13.58878898620605 11.22214412689209 13.82301139831543 12.26702213287354 14.24723339080811 C 13.92282199859619 8.948589324951172 18.94987869262695 5.095499992370605 24.89402198791504 5.095499992370605 C 27.10632133483887 5.095499992370605 29.19103240966797 5.628866672515869 31.02300071716309 6.572522163391113 C 33.88370132446289 2.597144365310669 38.60398864746094 0 43.94225692749023 0 C 50.47635650634766 0 56.08411026000977 3.88973331451416 58.4901008605957 9.437744140625 C 58.97061157226562 9.375210762023926 59.46181106567383 9.342944145202637 59.96006774902344 9.342944145202637 C 66.05780029296875 9.342944145202637 71 14.19027805328369 71 20.17086601257324 C 71 26.08016586303711 66.17469024658203 30.88527870178223 60.17674255371094 30.99801063537598 L 60.17674255371094 31 Z" stroke="none" fill="#a3a3a3"/>
    </g>
  </g>
</svg>
