<svg xmlns="http://www.w3.org/2000/svg" width="21" height="18.656" viewBox="0 0 21 18.656">
  <g id="fav_icon_empty" data-name="fav icon empty" transform="translate(0.5 -29.5)">
    <g id="Group_407" data-name="Group 407" transform="translate(0 30)">
      <path id="Path_153" data-name="Path 153" d="M14.688,30a4.735,4.735,0,0,0-2.957,1.022A6.737,6.737,0,0,0,10,33.1a6.736,6.736,0,0,0-1.73-2.081A4.735,4.735,0,0,0,5.312,30C2.284,30,0,32.477,0,35.762c0,3.549,2.849,5.977,7.163,9.653.733.624,1.563,1.332,2.426,2.086a.625.625,0,0,0,.823,0c.863-.755,1.693-1.462,2.426-2.087C17.151,41.739,20,39.311,20,35.762,20,32.477,17.716,30,14.688,30Z" transform="translate(0 -30)" fill="none" stroke="#a3a3a3" stroke-width="1"/>
    </g>
  </g>
</svg>
