<svg xmlns="http://www.w3.org/2000/svg" width="33.035" height="29.516" viewBox="0 0 33.035 29.516">
  <g id="like" transform="translate(1.5 -28.5)">
    <g id="Group_407" data-name="Group 407" transform="translate(0 30)">
      <path id="Path_153" data-name="Path 153" d="M22.057,30a7.111,7.111,0,0,0-4.441,1.535,10.117,10.117,0,0,0-2.6,3.125,10.116,10.116,0,0,0-2.6-3.125A7.111,7.111,0,0,0,7.978,30C3.43,30,0,33.72,0,38.654c0,5.33,4.279,8.976,10.757,14.5,1.1.937,2.347,2,3.643,3.133a.939.939,0,0,0,1.236,0c1.3-1.133,2.543-2.2,3.644-3.134,6.477-5.52,10.756-9.166,10.756-14.5C30.035,33.72,26.605,30,22.057,30Z" transform="translate(0 -30)" fill="#a3a3a3" stroke="#a3a3a3" stroke-width="3"/>
    </g>
  </g>
</svg>
