<svg xmlns="http://www.w3.org/2000/svg" width="375.126" height="102.572" viewBox="0 0 375.126 102.572">
  <g id="Group_438" data-name="Group 438" transform="translate(-648 6431)">
    <g id="Logo" transform="translate(648 -6431)">
      <g id="Group_313" data-name="Group 313" transform="translate(0 0)">
        <path id="Path_130" data-name="Path 130" d="M61.225,112.99a51.286,51.286,0,1,1,51.291-51.276A51.346,51.346,0,0,1,61.225,112.99m0-93.7a42.4,42.4,0,1,0,42.386,42.424A42.47,42.47,0,0,0,61.225,19.29" transform="translate(-9.949 -10.418)" fill="#fff"/>
        <path id="Path_133" data-name="Path 133" d="M86.06,48.793c.014-.023.032-.375.032-.375a10.313,10.313,0,0,0-20.625-.168l-.027.619v.693l-.07,8.064v.844a2.555,2.555,0,0,1-2.562,2.562,2.511,2.511,0,0,1-2.185-1.254,2.6,2.6,0,0,1-.372-1.307v-.844l-.092-8.064V48.419a10.326,10.326,0,1,0-20.652.111v.131l-.019.4.019.088v.413L39.4,57.737v.733a2.583,2.583,0,0,1-2.58,2.562,2.528,2.528,0,0,1-2.185-1.254,2.6,2.6,0,0,1-.371-1.307v-12.4a3.973,3.973,0,0,0-.562-2.019,3.8,3.8,0,0,0-3.3-1.869,3.853,3.853,0,0,0-3.828,3.888V58.636A10.271,10.271,0,0,0,36.817,68.922a10.421,10.421,0,0,0,10.38-9.8c0-.038.041-.817.041-.817l-.014-.362v-.445l.032-8.909a2.594,2.594,0,0,1,2.58-2.556A2.537,2.537,0,0,1,52,47.281a2.4,2.4,0,0,1,.395,1.3v.808l.093,8.065v1.177a10.336,10.336,0,0,0,20.672,0V57.493l.092-8.1v-.808A2.556,2.556,0,0,1,78,47.28a2.5,2.5,0,0,1,.382,1.3V49.5l.018,7.954v3.531a3.974,3.974,0,0,0,.558,2.019,3.866,3.866,0,0,0,7.174-2.019V49.633S86.074,48.947,86.06,48.793Z" transform="translate(-5.056 -2.258)" fill="#fff"/>
      </g>
      <text id="Weatherize" transform="translate(117.126 70.292)" fill="#fff" font-size="43" font-family="Montserrat-Bold, Montserrat" font-weight="700"><tspan x="0" y="0">Weatherize</tspan></text>
    </g>
  </g>
</svg>
