<svg xmlns="http://www.w3.org/2000/svg" width="277.878" height="111.693" viewBox="0 0 277.878 111.693">
  <g id="Group_440" data-name="Group 440" transform="translate(-1067.122 8807.761)">
    <text id="There_is_no_bad_weather" data-name="There is no bad weather" transform="translate(1212 -8700.067)" fill="#fff" font-size="16" font-family="Montserrat-Bold, Montserrat" font-weight="700"><tspan x="-101.28" y="0">There is no bad weather</tspan></text>
    <g id="Logo" transform="translate(1067.122 -8807.761)">
      <g id="Group_313" data-name="Group 313" transform="translate(0 0)">
        <path id="Path_130" data-name="Path 130" d="M47.408,85.351a37.466,37.466,0,1,1,37.47-37.459,37.51,37.51,0,0,1-37.47,37.459m0-68.452A30.973,30.973,0,1,0,78.373,47.892,31.026,31.026,0,0,0,47.408,16.9" transform="translate(-9.949 -10.418)" fill="#fff"/>
        <path id="Path_133" data-name="Path 133" d="M70.03,45.921c.01-.017.024-.274.024-.274a7.534,7.534,0,0,0-15.067-.123l-.02.452v.506l-.051,5.891v.617a1.866,1.866,0,0,1-1.871,1.871,1.835,1.835,0,0,1-1.6-.916,1.9,1.9,0,0,1-.271-.955v-.617l-.067-5.891v-.834a7.544,7.544,0,1,0-15.087.081v.1l-.014.292.014.064v.3l-.081,5.972v.535a1.887,1.887,0,0,1-1.885,1.871,1.847,1.847,0,0,1-1.6-.916,1.9,1.9,0,0,1-.271-.955V43.933a2.9,2.9,0,0,0-.41-1.475,2.775,2.775,0,0,0-2.41-1.365,2.815,2.815,0,0,0-2.8,2.841v9.179a7.5,7.5,0,0,0,7.485,7.515,7.613,7.613,0,0,0,7.583-7.162c0-.027.03-.6.03-.6l-.01-.265v-.325l.024-6.509A1.9,1.9,0,0,1,43.567,43.9a1.853,1.853,0,0,1,1.579.915,1.75,1.75,0,0,1,.288.952v.59l.068,5.892v.86a7.551,7.551,0,0,0,15.1,0v-.834l.067-5.919v-.59a1.868,1.868,0,0,1,3.474-.952,1.83,1.83,0,0,1,.279.952v.671l.013,5.811v2.58a2.9,2.9,0,0,0,.408,1.475,2.824,2.824,0,0,0,5.241-1.475V46.535S70.041,46.034,70.03,45.921Z" transform="translate(-10.853 -11.925)" fill="#fff"/>
      </g>
      <text id="Weatherize" transform="translate(85.878 51.693)" fill="#fff" font-size="32" font-family="Montserrat-Bold, Montserrat" font-weight="700"><tspan x="0" y="0">Weatherize</tspan></text>
    </g>
  </g>
</svg>
