<svg xmlns="http://www.w3.org/2000/svg" width="145.22" height="88.533" viewBox="0 0 145.22 88.533">
  <g id="wlogo" transform="translate(0 0.002)">
    <path id="Path_219" data-name="Path 219" d="M368.9,235.76c5.41.36,10.82.83,16.22,1.07a33.089,33.089,0,0,0,7.37-.51,21.54,21.54,0,0,1,6.17-.5,3,3,0,0,0,3-3,3.08,3.08,0,0,0-3-3,25,25,0,0,0-6.84.54,28.89,28.89,0,0,1-6.7.47c-5.4-.24-10.81-.71-16.22-1.07a3,3,0,0,0-3,3,3.06,3.06,0,0,0,3,3Z" transform="translate(-365.9 -228.07)" fill="#f4f4f2"/>
    <path id="Path_220" data-name="Path 220" d="M366.67,231.8c5.44,21.47,10.49,43.09,17,64.27,1.84,6,3.82,11.93,6,17.8a3.11,3.11,0,0,0,2.89,2.21q12.15-.12,24.3.38a3,3,0,0,0,0-6q-12.15-.49-24.3-.38l2.89,2.2c-7.6-20.7-12.86-42.15-18.27-63.51l-4.7-18.57c-.95-3.74-6.74-2.15-5.79,1.6Z" transform="translate(-365.9 -228.07)" fill="#f4f4f2"/>
    <path id="Path_221" data-name="Path 221" d="M395.77,233.62q4.38,23.16,10.87,45.87,1.82,6.35,3.8,12.63a3,3,0,0,0,5.79-1.59q-7.11-22.5-12.06-45.58-1.4-6.44-2.62-12.92a3,3,0,1,0-5.78,1.59Z" transform="translate(-365.9 -228.07)" fill="#f4f4f2"/>
    <path id="Path_222" data-name="Path 222" d="M415.21,294.14a325.008,325.008,0,0,0,20.27-28,3,3,0,1,0-5.18-3A309.436,309.436,0,0,1,411,289.9a3.09,3.09,0,0,0,0,4.24,3,3,0,0,0,4.24,0Z" transform="translate(-365.9 -228.07)" fill="#f4f4f2"/>
    <path id="Path_223" data-name="Path 223" d="M419,314.81l11.71-15.28c3.64-4.75,7.88-9.42,10.49-14.84a3.11,3.11,0,0,0-.46-3.64,3,3,0,0,0-3.64-.47l-.8.58a3.1,3.1,0,0,0-1.08,4.11,3,3,0,0,0,4.11,1.08l.8-.59-4.11-4.1c-2.61,5.42-6.85,10.09-10.49,14.84l-11.71,15.28c-1,1.29-.2,3.36,1.07,4.11a3.09,3.09,0,0,0,4.11-1.08Z" transform="translate(-365.9 -228.07)" fill="#f4f4f2"/>
    <path id="Path_224" data-name="Path 224" d="M508.12,229.9c-5.4.36-10.81.83-16.22,1.08a25.4,25.4,0,0,1-6.46-.48,23.07,23.07,0,0,0-6.92-.68,3.09,3.09,0,0,0-3,3,3,3,0,0,0,3,3,18.47,18.47,0,0,1,5.87.58,30.52,30.52,0,0,0,7.51.58c5.41-.25,10.82-.72,16.22-1.08a3.07,3.07,0,0,0,3-3,3,3,0,0,0-3-3Z" transform="translate(-365.9 -228.07)" fill="#f4f4f2"/>
    <path id="Path_225" data-name="Path 225" d="M504.57,230.35c-5.44,21.47-10.49,43.09-17,64.27-1.84,6-3.82,11.92-6,17.8l2.89-2.2q-12.15-.12-24.29.38a3.06,3.06,0,0,0-3,3,3,3,0,0,0,3,3q12.13-.5,24.29-.38a3.11,3.11,0,0,0,2.9-2.2c7.6-20.71,12.86-42.16,18.27-63.51l4.7-18.57c.95-3.74-4.83-5.34-5.78-1.59Z" transform="translate(-365.9 -228.07)" fill="#f4f4f2"/>
    <path id="Path_226" data-name="Path 226" d="M475.63,232c-2.94,15.49-6.66,30.84-11,46q-1.83,6.35-3.82,12.65c-1.17,3.69,4.63,5.27,5.79,1.59q7.11-22.54,12.18-45.69,1.41-6.47,2.64-12.95a3.08,3.08,0,0,0-2.09-3.69,3,3,0,0,0-3.69,2.1Z" transform="translate(-365.9 -228.07)" fill="#f4f4f2"/>
    <path id="Path_227" data-name="Path 227" d="M466.06,290a309.427,309.427,0,0,1-19.33-26.75,3.06,3.06,0,0,0-4.11-1.07,3,3,0,0,0-1.08,4.1,325.134,325.134,0,0,0,20.27,28,3,3,0,0,0,4.25,0,3.09,3.09,0,0,0,0-4.25Z" transform="translate(-365.9 -228.07)" fill="#f4f4f2"/>
    <path id="Path_228" data-name="Path 228" d="M463.24,311.93l-11.71-15.28c-3.64-4.75-7.89-9.42-10.5-14.85l-4.1,4.11.8.58a3,3,0,0,0,4.1-1.08,3.06,3.06,0,0,0-1.07-4.1l-.8-.59a3,3,0,0,0-3.64.47,3.13,3.13,0,0,0-.47,3.64c2.61,5.42,6.86,10.1,10.5,14.84L458.06,315a3.1,3.1,0,0,0,4.1,1.07c1.27-.74,2.07-2.81,1.08-4.1Z" transform="translate(-365.9 -228.07)" fill="#f4f4f2"/>
    <path id="Path_229" data-name="Path 229" d="M432,268.13l12-.28a3,3,0,1,0,0-6l-12,.28a3,3,0,0,0,0,6Z" transform="translate(-365.9 -228.07)" fill="#f4f4f2"/>
  </g>
</svg>
